<svg xmlns="http://www.w3.org/2000/svg" width="530" height="530" viewBox="0 0 530 530" font-family="sans-serif">
<rect width="530" height="530" fill="#fafafa"/>
<text x="265.0" y="20" text-anchor="middle" font-size="16" font-weight="bold">dose_response</text>
<rect x="20" y="410" width="150" height="100" rx="8" fill="#c8e6c9" stroke="#555" stroke-width="1.5"/>
<text x="26" y="426" font-size="11" fill="#333">slot 1</text>
<text x="95.0" y="460.0" text-anchor="middle" font-size="13" font-weight="bold">plate</text>
<text x="95.0" y="476.0" text-anchor="middle" font-size="9" fill="#444">corning_96_wellplate_360ul_flat</text>
<rect x="190" y="410" width="150" height="100" rx="8" fill="#a8d8ea" stroke="#555" stroke-width="1.5"/>
<text x="196" y="426" font-size="11" fill="#333">slot 2</text>
<text x="265.0" y="460.0" text-anchor="middle" font-size="13" font-weight="bold">reagents</text>
<text x="265.0" y="476.0" text-anchor="middle" font-size="9" fill="#444">nest_12_reservoir_15ml</text>
<rect x="360" y="410" width="150" height="100" rx="8" fill="#ffe08a" stroke="#555" stroke-width="1.5"/>
<text x="366" y="426" font-size="11" fill="#333">slot 3</text>
<text x="435.0" y="460.0" text-anchor="middle" font-size="13" font-weight="bold">tips</text>
<text x="435.0" y="476.0" text-anchor="middle" font-size="9" fill="#444">opentrons_96_tiprack_300ul</text>
<rect x="20" y="290" width="150" height="100" rx="8" fill="#eeeeee" stroke="#555" stroke-width="1.5"/>
<text x="26" y="306" font-size="11" fill="#333">slot 4</text>
<rect x="190" y="290" width="150" height="100" rx="8" fill="#eeeeee" stroke="#555" stroke-width="1.5"/>
<text x="196" y="306" font-size="11" fill="#333">slot 5</text>
<rect x="360" y="290" width="150" height="100" rx="8" fill="#ffe08a" stroke="#555" stroke-width="1.5"/>
<text x="366" y="306" font-size="11" fill="#333">slot 6</text>
<text x="435.0" y="340.0" text-anchor="middle" font-size="13" font-weight="bold">tips2</text>
<text x="435.0" y="356.0" text-anchor="middle" font-size="9" fill="#444">opentrons_96_tiprack_300ul</text>
<rect x="20" y="170" width="150" height="100" rx="8" fill="#eeeeee" stroke="#555" stroke-width="1.5"/>
<text x="26" y="186" font-size="11" fill="#333">slot 7</text>
<rect x="190" y="170" width="150" height="100" rx="8" fill="#eeeeee" stroke="#555" stroke-width="1.5"/>
<text x="196" y="186" font-size="11" fill="#333">slot 8</text>
<rect x="360" y="170" width="150" height="100" rx="8" fill="#eeeeee" stroke="#555" stroke-width="1.5"/>
<text x="366" y="186" font-size="11" fill="#333">slot 9</text>
<rect x="20" y="50" width="150" height="100" rx="8" fill="#eeeeee" stroke="#555" stroke-width="1.5"/>
<text x="26" y="66" font-size="11" fill="#333">slot 10</text>
<rect x="190" y="50" width="150" height="100" rx="8" fill="#eeeeee" stroke="#555" stroke-width="1.5"/>
<text x="196" y="66" font-size="11" fill="#333">slot 11</text>
<rect x="360" y="50" width="150" height="100" rx="8" fill="#f0c0c0" stroke="#555" stroke-width="1.5"/>
<text x="366" y="66" font-size="11" fill="#333">slot 12</text>
<text x="435.0" y="100.0" text-anchor="middle" font-size="11" fill="#a33">Fixed Trash</text>
</svg>